
<svg xmlns="http://www.w3.org/2000/svg" version="1.1" xmlns:xlink="http://www.w3.org/1999/xlink" preserveAspectRatio="none" x="0px" y="0px" width="365px" height="365px" viewBox="0 0 365 365">
<defs>
<g id="Layer0_0_MEMBER_0_FILL">
<path fill="#222222" stroke="none" d="
M 403.65 328.65
Q 457.05 275.4 457.05 200 457.05 124.6 403.65 71.25 350.4 18 275 18 199.6 18 146.25 71.25 92.95 124.6 92.95 200 92.95 258.75 125.3 304.05 134.5 316.9 146.25 328.65 189.4 371.85 247 380.1 260.6 382.05 275 382.05 275.35 382.05 275.65 382.05 289.7 382 303 380.1 360.6 371.85 403.65 328.65
M 439.05 199.95
Q 439.05 267.95 390.95 315.9 343.3 363.75 275.95 364.1 275.5 364.1 275 364.1 237.75 364.1 206.55 349.65 180.7 337.7 158.9 315.9 110.9 267.95 110.9 199.95 110.9 132 158.9 83.95 207.05 36 275 36 342.95 36 390.95 83.95 439.05 132 439.05 199.95
M 388.15 313.05
Q 435.1 266.25 435.1 199.95 435.1 133.65 388.15 86.8 341.35 40 275.05 40 208.75 40 161.85 86.8 114.95 133.65 114.95 199.95 114.95 266.25 161.85 313.05 183.1 334.3 208.25 345.95 238.7 360.05 275.05 360.05 275.55 360.05 275.95 360.05 341.7 359.7 388.15 313.05 Z"/>
</g>

<g id="Layer0_0_MEMBER_1_FILL">
<path fill="#FFFFFF" stroke="none" d="
M 261.2 125.3
L 254.6 101.7
Q 253.25 97.1 251.95 95.5 243.25 84.55 229.9 135.55 215 216.5 237.05 244.45 251.8 258.1 273.35 247.8 279.85 244.6 285.75 239.3 291.42421875 265.7017578125 298.15 297.25 299.7986328125 304.6609375 302.25 306.45 304.7228515625 308.8294921875 307 307.3 310.469921875 303.5763671875 308.05 292 306.7408203125 285.94375 304.95 278.45
L 291.85 232.6
Q 297.3 225.9 301.9 216.85 312.05 196.95 305.6 191.35 300.95 187.3 295.7 190.45 286.65 196.4 281.95 197.95
L 279.45 189.3
Q 283.05 181.1 283.2 177.2 283.15 172.3 278.25 173.2 277 173.4 275.35 174.6
L 269.15 153.05
Q 271.9 150 275.2 146.55 296.95 123.65 280.05 119.85 274.05 118.3 261.2 125.3
M 250.15 99.8
Q 251.6 100.7 252.85 104.05 255.3 110.25 259.5 126.3 254.8 128.9 249.25 132.5 244.6 136.15 251.4 133 256.1 130.4 260.1 128.6 262.7 138.45 265.95 151.9 260.2 159.15 252.3 168.4 248.2 174.7 266.8 155.4 269.1 165.55 271.95 177.6 267.85 181.7 262.15 189.7 261.15 191.15 261.15 191.45 261.2 191.95 263.35 189.65 268.75 182.85 272.45 179.75 273.75 185.75 275.4 192.35
L 272.7 198.65
Q 271.35 203.3 277.55 201.8 281 217.85 285.1 236.45 276.3 245.1 264.65 247.8 241 253.2 233.45 229.3 222.25 188 233.05 134.8 242.35 96.3 250.15 99.8
M 261.9 127.75
Q 282.2 118.45 280.4 129.75 279.45 134.65 268.05 149.2
L 261.9 127.75
M 276 177.25
Q 276.35 177.1 278.15 176.75 280 176.45 279.5 179.25 279 182.1 278.1 184.5
L 276 177.25
M 298.25 216.55
Q 295.05 223.8 290.95 229.55
L 282.65 199.95
Q 287.7 197.85 295.25 193.7 310.6 187.25 298.25 216.55 Z"/>
</g>

<path id="Layer0_0_MEMBER_1_1_STROKES" stroke="#FFFFFF" stroke-width="2" stroke-linejoin="round" stroke-linecap="round" fill="none" d="
M 275.4 192.35
L 272.7 198.65
Q 271.35 203.3 277.55 201.8 281 217.85 285.1 236.45 276.3 245.1 264.65 247.8 241 253.2 233.45 229.3 222.25 188 233.05 134.8 242.35 96.3 250.15 99.8 251.6 100.7 252.85 104.05 255.3 110.25 259.5 126.3 254.8 128.9 249.25 132.5 244.6 136.15 251.4 133 256.1 130.4 260.1 128.6 262.7 138.45 265.95 151.9 260.2 159.15 252.3 168.4 248.2 174.7 266.8 155.4 269.1 165.55 271.95 177.6 267.85 181.7 262.15 189.7 261.15 191.15 261.15 191.45 261.2 191.95 263.35 189.65 268.75 182.85 272.45 179.75 273.75 185.75 275.4 192.35 Z
M 269.15 153.05
Q 271.9 150 275.2 146.55 296.95 123.65 280.05 119.85 274.05 118.3 261.2 125.3
L 254.6 101.7
Q 253.25 97.1 251.95 95.5 243.25 84.55 229.9 135.55 215 216.5 237.05 244.45 251.8 258.1 273.35 247.8 279.85 244.6 285.75 239.3 291.42421875 265.7017578125 298.15 297.25 299.7986328125 304.6609375 302.25 306.45 304.7228515625 308.8294921875 307 307.3 310.469921875 303.5763671875 308.05 292 306.7408203125 285.94375 304.95 278.45
L 291.85 232.6
Q 297.3 225.9 301.9 216.85 312.05 196.95 305.6 191.35 300.95 187.3 295.7 190.45 286.65 196.4 281.95 197.95
L 279.45 189.3
Q 283.05 181.1 283.2 177.2 283.15 172.3 278.25 173.2 277 173.4 275.35 174.6
L 269.15 153.05 Z
M 261.9 127.75
L 268.05 149.2
Q 279.45 134.65 280.4 129.75 282.2 118.45 261.9 127.75 Z
M 278.1 184.5
L 276 177.25
M 282.65 199.95
Q 287.7 197.85 295.25 193.7 310.6 187.25 298.25 216.55 295.05 223.8 290.95 229.55
L 282.65 199.95 Z"/>
</defs>

<g transform="matrix( 1, 0, 0, 1, -92.95,-18) ">
<use xlink:href="#Layer0_0_MEMBER_0_FILL"/>
</g>

<g transform="matrix( 1, 0, 0, 1, -92.4,-16.7) ">
<use xlink:href="#Layer0_0_MEMBER_1_FILL"/>

<use xlink:href="#Layer0_0_MEMBER_1_1_STROKES"/>
</g>
</svg>
