
<svg xmlns="http://www.w3.org/2000/svg" version="1.1" xmlns:xlink="http://www.w3.org/1999/xlink" preserveAspectRatio="none" x="0px" y="0px" width="550px" height="152px" viewBox="0 0 550 152">
<defs>
<g id="Layer0_0_FILL">
<path fill="#222222" stroke="none" d="
M 209 86
L 212.3 86 217 74.95 225.8 74.95 230.5 86 233.8 86 221.4 56.7 209 86
M 220 67.95
Q 220.85 66.1 221.4 64.1
L 221.75 65.4 224.4 71.75 218.35 71.75 220 67.95
M 314.35 70.9
L 313.85 72.15 313.4 70.9 305.7 58 301.65 58 311.85 75.2 311.85 86 315.9 86 315.9 75.25 326.05 58 322 58 314.35 70.9
M 243.45 65.75
L 243.35 64.5 244.1 65.5 264.6 87.3 264.6 58 261.25 58 261.25 78.7 261.4 79.95 260.6 78.95 240.15 56.7 240.15 86 243.45 86 243.45 65.75
M 275.95 65.75
L 275.85 64.5 276.6 65.5 297.1 87.3 297.1 58 293.75 58 293.75 78.7 293.9 79.95 293.1 78.95 272.65 56.7 272.65 86 275.95 86 275.95 65.75
M 362.8 58
L 362.8 86 380.6 86 380.6 82.85 366.1 82.85 366.1 73.5 378.5 73.5 378.5 70.3 366.1 70.3 366.1 61.15 380.05 61.15 380.05 58 362.8 58
M 356.4 61.8
Q 355.8 60.45 354.65 59.65 353.5 58.8 351.85 58.4 350.25 58 348.3 58
L 340.95 58 340.95 86 349 86
Q 350.7 86 352.35 85.55 354 85.1 355.25 84.2 356.5 83.3 357.3 81.95 358.05 80.6 358.05 78.8 358.05 77.35 357.6 76.2 357.1 75.05 356.3 74.15 355.55 73.3 354.45 72.7 353.4 72.15 352.3 71.9 354.7 71.25 355.9 69.35 356.45 68.4 356.75 67.35 357.05 66.25 357.05 65 357.05 63.15 356.4 61.8
M 344.3 61.15
L 348.55 61.15
Q 349.7 61.15 350.6 61.4 351.6 61.65 352.3 62.15 353.75 63.15 353.75 65.5 353.75 67.7 352.35 69 350.95 70.3 348.6 70.3
L 344.3 70.3 344.3 61.15
M 344.3 73.5
L 348.15 73.5
Q 349.4 73.5 350.6 73.75 351.8 74.05 352.7 74.6 353.6 75.2 354.2 76.1 354.7 77.05 354.7 78.3 354.7 79.45 354.25 80.3 353.75 81.1 352.95 81.7 352.15 82.3 351.05 82.55 350 82.85 348.75 82.85
L 344.3 82.85 344.3 73.5
M 408 86
L 411.3 86 398.9 56.7 386.5 86 389.8 86 394.5 74.95 403.3 74.95 408 86
M 399.25 65.4
L 401.9 71.75 395.85 71.75 397.5 67.95
Q 398.35 66.1 398.9 64.1
L 399.25 65.4
M 426.4 61.15
L 435.8 61.15 435.8 58 413.65 58 413.65 61.15 423.1 61.15 423.1 86 426.4 86 426.4 61.15
M 439.35 66.5
Q 438.25 69.15 438.25 72.05 438.25 75 439.35 77.6 440.5 80.2 442.4 82.15 444.35 84.1 446.95 85.2 449.55 86.3 452.5 86.3 455.45 86.3 458.05 85.2 460.65 84.1 462.65 82.15 463.6 81.2 464.4 80.05 465.15 78.9 465.75 77.6 466.85 75 466.85 72.05 466.85 69.15 465.75 66.5 465.15 65.2 464.4 64.05 463.6 62.9 462.65 61.9 461.65 60.95 460.5 60.15 459.35 59.4 458.05 58.8 455.45 57.7 452.5 57.7 449.55 57.7 446.95 58.8 445.65 59.4 444.5 60.15 443.4 60.95 442.4 61.9 440.5 63.85 439.35 66.5
M 441.75 69.8
L 442.4 67.7
Q 443.25 65.7 444.75 64.15 446.3 62.65 448.25 61.75
L 450.35 61.1 452.55 60.9 454.75 61.1 456.8 61.75
Q 458.85 62.65 460.3 64.15 461.8 65.7 462.7 67.7 463.55 69.7 463.55 72.05 463.55 74.35 462.7 76.35 461.8 78.4 460.3 79.9 458.85 81.4 456.8 82.3
L 454.75 82.95 452.55 83.15
Q 450.25 83.15 448.25 82.3 446.3 81.4 444.75 79.9 443.25 78.4 442.4 76.35
L 441.75 74.3 441.55 72.05 441.75 69.8
M 494.45 58
L 494.45 78.7 494.6 79.95 493.8 78.95 473.35 56.7 473.35 86 476.65 86 476.65 65.75 476.55 64.5 477.3 65.5 497.8 87.3 497.8 58 494.45 58
M 199.25 60.2
Q 198.15 59.5 196.85 59 194.3 58 191.45 58
L 184.9 58 184.9 86 190.05 86
Q 192.2 86 194 85.65 195.75 85.35 197.25 84.7 200.2 83.4 202 81.35 203.85 79.35 204.7 76.9 205.25 75.2 205.5 72.05 205.5 70.4 205.2 68.95 204.95 67.5 204.4 66.2 203.25 63.65 201.35 61.8 200.35 60.9 199.25 60.2
M 188.2 61.15
L 191 61.15
Q 193.4 61.15 195.45 61.9 197.45 62.7 198.95 64.1 200.45 65.5 201.35 67.5 202.2 69.5 202.2 72
L 201.95 74.35
Q 201.75 75.45 201.35 76.45 200.45 78.45 198.95 79.85 197.45 81.25 195.45 82.05 193.4 82.8 191 82.8
L 188.2 82.8 188.2 61.15 Z"/>
</g>

<g id="Duplicate_Items_Folder_Symbol_1_0_Layer0_0_FILL">
<path fill="#222222" stroke="none" d="
M 128.65 -128.75
Q 75.4 -182 0 -182 -75.4 -182 -128.75 -128.75 -182.05 -75.4 -182.05 0 -182.05 58.75 -149.7 104.05 -140.5 116.9 -128.75 128.65 -85.6 171.85 -28 180.1 -14.4 182.05 0 182.05 0.35 182.05 0.65 182.05 14.7 182 28 180.1 85.6 171.85 128.65 128.65 182.05 75.4 182.05 0 182.05 -75.4 128.65 -128.75
M 0 -164
Q 67.95 -164 115.95 -116.05 164.05 -68 164.05 -0.05 164.05 67.95 115.95 115.9 68.3 163.75 0.95 164.1 0.5 164.1 0 164.1 -37.25 164.1 -68.45 149.65 -94.3 137.7 -116.1 115.9 -164.1 67.95 -164.1 -0.05 -164.1 -68 -116.1 -116.05 -67.95 -164 0 -164
M 160.1 -0.05
Q 160.1 -66.35 113.15 -113.2 66.35 -160 0.05 -160 -66.25 -160 -113.15 -113.2 -160.05 -66.35 -160.05 -0.05 -160.05 66.25 -113.15 113.05 -91.9 134.3 -66.75 145.95 -36.3 160.05 0.05 160.05 0.55 160.05 0.95 160.05 66.7 159.7 113.15 113.05 160.1 66.25 160.1 -0.05 Z"/>
</g>

<g id="Duplicate_Items_Folder_Symbol_1_0_Layer0_1_FILL">
<path fill="#FFFFFF" stroke="none" d="
M 0.75 -52.15
Q 22.5 -75.05 5.6 -78.85 -0.4 -80.4 -13.25 -73.4
L -19.85 -97
Q -21.2 -101.6 -22.5 -103.2 -31.2 -114.15 -44.55 -63.15 -59.45 17.8 -37.4 45.75 -22.65 59.4 -1.1 49.1 5.4 45.9 11.3 40.6 16.95 67 23.7 98.55 25.35 105.95 27.8 107.75 30.25 110.15 32.55 108.6 36 104.9 33.6 93.3 32.3 87.25 30.5 79.75
L 17.4 33.9
Q 22.85 27.2 27.45 18.15 37.6 -1.75 31.15 -7.35 26.5 -11.4 21.25 -8.25 12.2 -2.3 7.5 -0.75
L 5 -9.4
Q 8.6 -17.6 8.75 -21.5 8.7 -26.4 3.8 -25.5 2.55 -25.3 0.9 -24.1
L -5.3 -45.65
Q -2.55 -48.7 0.75 -52.15
M 3.65 -14.2
L 1.55 -21.45
Q 1.9 -21.6 3.7 -21.95 5.55 -22.25 5.05 -19.45 4.55 -16.6 3.65 -14.2
M 3.1 3.1
Q 6.55 19.15 10.65 37.75 1.85 46.4 -9.8 49.1 -33.45 54.5 -41 30.6 -52.2 -10.7 -41.4 -63.9 -32.1 -102.4 -24.3 -98.9 -22.85 -98 -21.6 -94.65 -19.15 -88.45 -14.95 -72.4 -19.65 -69.8 -25.2 -66.2 -29.85 -62.55 -23.05 -65.7 -18.35 -68.3 -14.35 -70.1 -11.75 -60.25 -8.5 -46.8 -14.25 -39.55 -22.15 -30.3 -26.25 -24 -7.65 -43.3 -5.35 -33.15 -2.5 -21.1 -6.6 -17 -12.3 -9 -13.3 -7.55 -13.3 -7.25 -13.25 -6.75 -11.1 -9.05 -5.7 -15.85 -2 -18.95 -0.7 -12.95 0.95 -6.35
L -1.75 -0.05
Q -3.1 4.6 3.1 3.1
M 23.8 17.85
Q 20.6 25.1 16.5 30.85
L 8.2 1.25
Q 13.25 -0.85 20.8 -5 36.15 -11.45 23.8 17.85
M -6.4 -49.5
L -12.55 -70.95
Q 7.75 -80.25 5.95 -68.95 5 -64.05 -6.4 -49.5 Z"/>
</g>
</defs>

<g transform="matrix( 1, 0, 0, 1, 0,0) ">
<use xlink:href="#Layer0_0_FILL"/>
</g>

<g transform="matrix( 0.4175872802734375, 0, 0, 0.4175872802734375, 76,76) ">
<g transform="matrix( 1, 0, 0, 1, 0,0) ">
<use xlink:href="#Duplicate_Items_Folder_Symbol_1_0_Layer0_0_FILL"/>
</g>

<g transform="matrix( 1, 0, 0, 1, 0,0) ">
<use xlink:href="#Duplicate_Items_Folder_Symbol_1_0_Layer0_1_FILL"/>
</g>
</g>
</svg>
