
<svg xmlns="http://www.w3.org/2000/svg" version="1.1" xmlns:xlink="http://www.w3.org/1999/xlink" preserveAspectRatio="none" x="0px" y="0px" width="550px" height="152px" viewBox="0 0 550 152">
<defs>
<g id="Layer1_0_FILL">
<path fill="#222222" stroke="none" d="
M 227.35 66.85
L 223.4 66.85 211.95 95.5 214.95 95.5
Q 215.45 95.5 215.8 95.25
L 216.25 94.6 218.95 87.65 231.8 87.65 234.5 94.6 234.95 95.25
Q 235.3 95.5 235.8 95.5
L 238.8 95.5 227.35 66.85
M 224.95 72
L 225.35 70.5 230.75 84.85 220.05 84.85 224.95 72
M 202.45 67.85
Q 199.85 66.85 196.7 66.85
L 186 66.85 186 95.5 196.7 95.5
Q 199.85 95.5 202.45 94.45 205.05 93.45 206.9 91.55 208.8 89.7 209.8 87.05 210.8 84.4 210.8 81.2 210.8 77.95 209.8 75.3 208.8 72.7 206.9 70.8 205.05 68.9 202.45 67.85
M 196.7 69.95
Q 199 69.95 200.9 70.75 202.75 71.5 204.1 72.95 205.4 74.4 206.1 76.45 206.85 78.55 206.85 81.2 206.85 83.8 206.1 85.9 205.4 88 204.1 89.4 202.75 90.85 200.9 91.6 199 92.35 196.7 92.35
L 189.9 92.35 189.9 69.95 196.7 69.95
M 320.95 66.85
Q 320.45 66.85 320.15 67.1
L 319.65 67.75 313.1 78.9 311.95 81.4 311.5 80.2 304.25 67.75 303.75 67.1
Q 303.45 66.85 302.9 66.85
L 299.5 66.85 310 84.1 310 95.5 313.85 95.5 313.85 84.1 324.4 66.85 320.95 66.85
M 245.2 66.95
L 244.45 66.85 242.45 66.85 242.45 95.5 245.85 95.5 245.75 73.2 262.35 94.8 262.95 95.35 263.7 95.5 265.65 95.5 265.65 66.85 262.25 66.85 262.35 89.1 245.75 67.5 245.2 66.95
M 275.4 66.95
L 274.65 66.85 272.65 66.85 272.65 95.5 276.05 95.5 275.95 73.2 292.55 94.8 293.15 95.35 293.9 95.5 295.85 95.5 295.85 66.85 292.45 66.85 292.55 89.1 275.95 67.5 275.4 66.95
M 361.55 66.85
L 361.55 95.5 379.2 95.5 379.2 92.35 365.45 92.35 365.45 82.55 376.55 82.55 376.55 79.5 365.45 79.5 365.45 70 379.2 70 379.2 66.85 361.55 66.85
M 349.35 67.35
Q 347.45 66.85 344.8 66.85
L 335.7 66.85 335.7 95.5 345.8 95.5
Q 348.2 95.5 350.1 94.9 351.95 94.35 353.25 93.25 354.55 92.15 355.2 90.65 355.85 89.15 355.85 87.35 355.85 84.65 354.25 83 352.7 81.4 349.55 80.75 350.9 80.35 351.9 79.7 352.9 79 353.6 78.2 354.25 77.35 354.6 76.35 354.9 75.4 354.9 74.35 354.9 72.55 354.35 71.2 353.75 69.8 352.5 68.85 351.3 67.9 349.35 67.35
M 344.8 69.9
Q 348 69.9 349.55 71.1 351.05 72.25 351.05 74.8 351.05 75.85 350.7 76.75 350.3 77.7 349.5 78.3 348.7 78.95 347.5 79.35 346.3 79.7 344.7 79.7
L 339.55 79.7 339.55 69.9 344.8 69.9
M 339.55 92.4
L 339.55 82.45 345.75 82.45
Q 348.9 82.45 350.5 83.7 352.05 85 352.05 87.25 352.05 88.35 351.7 89.35 351.35 90.3 350.6 90.95 349.8 91.65 348.6 92.05 347.4 92.4 345.75 92.4
L 339.55 92.4
M 405.3 95.5
L 408.3 95.5 396.85 66.85 392.9 66.85 381.45 95.5 384.45 95.5
Q 384.95 95.5 385.3 95.25
L 385.75 94.6 388.45 87.65 401.3 87.65 404 94.6 404.45 95.25
Q 404.8 95.5 405.3 95.5
M 394.45 72
L 394.85 70.5 400.25 84.85 389.55 84.85 394.45 72
M 428.8 70.1
L 428.8 66.85 406.35 66.85 406.35 70.1 415.65 70.1 415.65 95.5 419.55 95.5 419.55 70.1 428.8 70.1
M 437.6 67.6
Q 435 68.7 433.15 70.65 431.3 72.55 430.25 75.25 429.25 77.95 429.25 81.2 429.25 84.4 430.25 87.1 431.3 89.8 433.15 91.7 435 93.65 437.6 94.75 440.2 95.8 443.35 95.8 446.5 95.8 449.15 94.75 451.75 93.65 453.6 91.7 455.45 89.8 456.5 87.1 457.5 84.4 457.5 81.2 457.5 77.95 456.5 75.25 455.45 72.6 453.6 70.65 451.75 68.7 449.15 67.6 446.5 66.5 443.35 66.5 440.2 66.5 437.6 67.6
M 435.95 72.9
Q 437.3 71.45 439.2 70.65 441.05 69.9 443.35 69.9 445.7 69.9 447.55 70.65 449.45 71.45 450.75 72.9 452.1 74.35 452.8 76.45 453.5 78.55 453.5 81.2 453.5 83.8 452.8 85.9 452.1 88 450.75 89.45 449.45 90.9 447.55 91.65 445.7 92.45 443.35 92.45 441.05 92.45 439.2 91.65 437.3 90.9 435.95 89.45 434.65 88 433.9 85.9 433.2 83.8 433.2 81.2 433.2 78.55 433.9 76.45 434.65 74.35 435.95 72.9
M 486 95.5
L 486 66.85 482.6 66.85 482.7 89.1 466.1 67.5 465.55 66.95 464.8 66.85 462.8 66.85 462.8 95.5 466.2 95.5 466.1 73.2 482.7 94.8 483.3 95.35 484.05 95.5 486 95.5 Z"/>
</g>

<g id="Duplicate_Items_Folder_Symbol_1_0_Layer0_0_FILL">
<path fill="#222222" stroke="none" d="
M 128.65 -128.75
Q 75.4 -182 0 -182 -75.4 -182 -128.75 -128.75 -182.05 -75.4 -182.05 0 -182.05 58.75 -149.7 104.05 -140.5 116.9 -128.75 128.65 -85.6 171.85 -28 180.1 -14.4 182.05 0 182.05 0.35 182.05 0.65 182.05 14.7 182 28 180.1 85.6 171.85 128.65 128.65 182.05 75.4 182.05 0 182.05 -75.4 128.65 -128.75
M 0 -164
Q 67.95 -164 115.95 -116.05 164.05 -68 164.05 -0.05 164.05 67.95 115.95 115.9 68.3 163.75 0.95 164.1 0.5 164.1 0 164.1 -37.25 164.1 -68.45 149.65 -94.3 137.7 -116.1 115.9 -164.1 67.95 -164.1 -0.05 -164.1 -68 -116.1 -116.05 -67.95 -164 0 -164
M 160.1 -0.05
Q 160.1 -66.35 113.15 -113.2 66.35 -160 0.05 -160 -66.25 -160 -113.15 -113.2 -160.05 -66.35 -160.05 -0.05 -160.05 66.25 -113.15 113.05 -91.9 134.3 -66.75 145.95 -36.3 160.05 0.05 160.05 0.55 160.05 0.95 160.05 66.7 159.7 113.15 113.05 160.1 66.25 160.1 -0.05 Z"/>
</g>

<g id="Duplicate_Items_Folder_Symbol_1_0_Layer0_1_FILL">
<path fill="#FFFFFF" stroke="none" d="
M 0.75 -52.15
Q 22.5 -75.05 5.6 -78.85 -0.4 -80.4 -13.25 -73.4
L -19.85 -97
Q -21.2 -101.6 -22.5 -103.2 -31.2 -114.15 -44.55 -63.15 -59.45 17.8 -37.4 45.75 -22.65 59.4 -1.1 49.1 5.4 45.9 11.3 40.6 16.95 67 23.7 98.55 25.35 105.95 27.8 107.75 30.25 110.15 32.55 108.6 36 104.9 33.6 93.3 32.3 87.25 30.5 79.75
L 17.4 33.9
Q 22.85 27.2 27.45 18.15 37.6 -1.75 31.15 -7.35 26.5 -11.4 21.25 -8.25 12.2 -2.3 7.5 -0.75
L 5 -9.4
Q 8.6 -17.6 8.75 -21.5 8.7 -26.4 3.8 -25.5 2.55 -25.3 0.9 -24.1
L -5.3 -45.65
Q -2.55 -48.7 0.75 -52.15
M 3.65 -14.2
L 1.55 -21.45
Q 1.9 -21.6 3.7 -21.95 5.55 -22.25 5.05 -19.45 4.55 -16.6 3.65 -14.2
M 3.1 3.1
Q 6.55 19.15 10.65 37.75 1.85 46.4 -9.8 49.1 -33.45 54.5 -41 30.6 -52.2 -10.7 -41.4 -63.9 -32.1 -102.4 -24.3 -98.9 -22.85 -98 -21.6 -94.65 -19.15 -88.45 -14.95 -72.4 -19.65 -69.8 -25.2 -66.2 -29.85 -62.55 -23.05 -65.7 -18.35 -68.3 -14.35 -70.1 -11.75 -60.25 -8.5 -46.8 -14.25 -39.55 -22.15 -30.3 -26.25 -24 -7.65 -43.3 -5.35 -33.15 -2.5 -21.1 -6.6 -17 -12.3 -9 -13.3 -7.55 -13.3 -7.25 -13.25 -6.75 -11.1 -9.05 -5.7 -15.85 -2 -18.95 -0.7 -12.95 0.95 -6.35
L -1.75 -0.05
Q -3.1 4.6 3.1 3.1
M 23.8 17.85
Q 20.6 25.1 16.5 30.85
L 8.2 1.25
Q 13.25 -0.85 20.8 -5 36.15 -11.45 23.8 17.85
M -6.4 -49.5
L -12.55 -70.95
Q 7.75 -80.25 5.95 -68.95 5 -64.05 -6.4 -49.5 Z"/>
</g>
</defs>

<g transform="matrix( 1.0035400390625, 0, 0, 1.0034027099609375, -0.8,-5.45) ">
<use xlink:href="#Layer1_0_FILL"/>
</g>

<g transform="matrix( 0.4175872802734375, 0, 0, 0.4175872802734375, 76,76) ">
<g transform="matrix( 1, 0, 0, 1, 0,0) ">
<use xlink:href="#Duplicate_Items_Folder_Symbol_1_0_Layer0_0_FILL"/>
</g>

<g transform="matrix( 1, 0, 0, 1, 0,0) ">
<use xlink:href="#Duplicate_Items_Folder_Symbol_1_0_Layer0_1_FILL"/>
</g>
</g>
</svg>
